<svg version="1.1" id="Layer_1" xmlns="http://www.w3.org/2000/svg" xmlns:xlink="http://www.w3.org/1999/xlink" x="0px" y="0px"
	 width="100%" viewBox="0 0 512 513" enable-background="new 0 0 512 513" xml:space="preserve">
<path fill="#FFFFFF" opacity="1.000000" stroke="none" 
	d="
M280.000000,1.000001 
	C357.631805,1.000000 435.263580,1.000000 512.947693,1.000000 
	C512.947693,171.888367 512.947693,342.776764 512.947693,514.000000 
	C438.312225,514.000000 363.623962,514.000000 288.451538,513.737549 
	C287.902527,513.312256 287.837646,513.149414 287.832520,512.522217 
	C287.898010,503.734283 287.621582,495.398499 287.976685,487.089722 
	C288.485718,475.178650 286.583435,463.537842 285.075775,451.809357 
	C283.388184,438.680725 277.201019,427.681763 269.065582,417.868225 
	C254.633377,400.458954 235.348999,392.728546 213.055145,391.495026 
	C213.645416,389.978973 214.131851,388.743835 214.845520,387.658020 
	C224.511841,372.951111 234.620117,358.515442 243.782776,343.502258 
	C252.702576,328.887024 261.108429,313.914154 268.907257,298.672211 
	C275.578308,285.634430 281.362305,272.114655 286.986145,258.578522 
	C291.139496,248.581711 294.403839,238.215546 298.367035,227.800476 
	C299.719269,224.144882 300.930878,220.742630 301.788177,217.253311 
	C304.512146,206.166534 307.104034,195.047302 309.959167,183.600937 
	C312.103363,172.122986 314.375000,161.029724 315.859955,149.832153 
	C317.051086,140.849854 317.816345,131.739960 317.798309,122.688629 
	C317.780609,113.806190 316.536041,104.926201 315.878540,95.632889 
	C315.604736,93.303070 315.387238,91.360733 314.941681,89.472198 
	C312.933777,80.961166 310.861237,72.465385 308.846741,63.588894 
	C304.930298,53.533188 301.355072,43.676838 296.930603,34.217731 
	C291.668060,22.966948 285.675964,12.057404 280.000000,1.000001 
M352.356262,252.262177 
	C335.233826,269.486786 318.111359,286.711365 300.409973,304.272369 
	C293.374634,311.352295 286.339264,318.432220 279.252441,325.563965 
	C287.642517,336.796997 297.820343,346.202179 309.928040,353.274567 
	C334.157043,367.427429 360.270325,371.590424 387.576904,365.537811 
	C407.364227,361.151886 424.586334,351.376831 439.678284,336.734375 
	C440.432922,335.674591 441.190125,334.616608 441.941772,333.554688 
	C447.310303,325.970093 453.531311,318.839783 457.868500,310.705139 
	C467.026215,293.529388 470.623077,275.064362 469.180450,255.406769 
	C468.145538,241.305008 465.361969,227.774750 458.592651,215.532257 
	C453.412384,206.163589 446.903046,197.440308 440.245331,189.014297 
	C436.694702,184.520615 431.576263,181.265747 427.556580,177.789993 
	C419.835205,185.295685 412.806335,192.128250 405.204041,199.248856 
	C402.628265,201.840546 400.050171,204.429977 397.477020,207.024323 
	C382.629150,221.994598 367.782471,236.966019 352.356262,252.262177 
z"/>
<path fill="#FFFFFF" opacity="1.000000" stroke="none" 
	d="
M76.000000,514.000000 
	C51.016308,514.000000 26.032616,514.000000 1.053490,514.000000 
	C1.058057,343.000000 1.058057,171.999985 1.058057,1.000000 
	C28.431637,1.000000 55.747162,1.000000 83.408096,1.327690 
	C77.036034,14.379632 70.001106,26.949867 63.724133,39.887833 
	C60.149509,47.255768 57.812840,55.224304 54.641544,63.180641 
	C54.041718,64.701660 53.646149,65.950844 53.408043,67.229355 
	C51.620216,76.829041 49.863434,86.434509 48.054443,96.456078 
	C47.341194,102.758698 45.923622,108.671700 46.145191,114.522621 
	C46.720169,129.705826 47.652054,144.898346 49.171463,160.013779 
	C49.983959,168.096619 52.305470,176.027802 53.964432,184.442383 
	C57.696629,198.930771 61.410358,213.004166 65.105713,227.443787 
	C65.930412,229.950592 66.861290,232.061234 67.603226,234.236328 
	C76.837585,261.308197 88.653748,287.210114 102.067345,312.468506 
	C116.554970,339.749359 133.416138,365.497406 150.484024,390.929993 
	C143.325439,392.181366 136.384399,392.718323 129.883057,394.698761 
	C97.841469,404.459198 76.298347,434.238220 76.021263,468.028534 
	C75.895615,483.351379 75.999977,498.676117 76.000000,514.000000 
z"/>
<path fill="#FF5B5B" opacity="1.000000" stroke="none" 
	d="
M76.468658,514.000000 
	C75.999977,498.676117 75.895615,483.351379 76.021263,468.028534 
	C76.298347,434.238220 97.841469,404.459198 129.883057,394.698761 
	C136.384399,392.718323 143.325439,392.181366 150.797943,391.078033 
	C152.717163,392.518799 153.964691,393.810883 155.075760,395.211243 
	C158.716461,399.799774 162.307556,404.427673 165.994476,409.376770 
	C171.377518,416.471161 176.683792,423.229218 181.984314,430.456665 
	C182.011765,448.881439 182.044983,466.836761 181.761795,484.945679 
	C173.827667,495.118530 164.165359,502.633759 152.679077,507.595795 
	C146.654785,510.198273 140.238983,511.894501 134.000000,514.000000 
	C114.979103,514.000000 95.958214,514.000000 76.468658,514.000000 
z"/>
<path fill="#FF001E" opacity="1.000000" stroke="none" 
	d="
M182.078186,484.792084 
	C182.044983,466.836761 182.011765,448.881439 182.214844,430.282623 
	C182.645889,429.101044 182.840622,428.562988 183.358429,427.916016 
	C188.142487,421.910095 192.603455,416.013062 197.370438,409.965088 
	C200.442780,406.174469 203.078415,402.424774 206.019119,398.931915 
	C208.156067,396.393768 210.696426,394.195282 213.056931,391.845337 
	C235.348999,392.728546 254.633377,400.458954 269.065582,417.868225 
	C277.201019,427.681763 283.388184,438.680725 285.075775,451.809357 
	C286.583435,463.537842 288.485718,475.178650 287.976685,487.089722 
	C287.621582,495.398499 287.898010,503.734283 287.646606,512.640869 
	C287.193695,513.444580 287.060059,513.703308 287.000000,514.000000 
	C268.312439,514.000000 249.624878,514.000000 230.322403,513.622070 
	C228.113693,512.977722 226.499420,512.798889 224.929245,512.431458 
	C207.359711,508.320465 193.319122,498.722809 182.078186,484.792084 
z"/>
<path fill="#FFBD86" opacity="1.000000" stroke="none" 
	d="
M54.918716,62.922390 
	C57.812840,55.224304 60.149509,47.255768 63.724133,39.887833 
	C70.001106,26.949867 77.036034,14.379632 83.876755,1.327690 
	C85.066673,1.000000 86.133339,1.000000 87.793015,1.311302 
	C96.818497,4.426391 105.263214,7.193970 113.680901,10.041466 
	C131.444519,16.050468 149.193985,22.101290 166.966537,28.591116 
	C166.983810,65.225655 166.983810,101.404030 166.983810,138.352402 
	C137.087845,118.405518 108.214828,99.188995 79.400108,79.885475 
	C71.152939,74.360535 63.074516,68.583717 54.918716,62.922390 
z"/>
<path fill="#F6A96C" opacity="1.000000" stroke="none" 
	d="
M279.600006,1.000001 
	C285.675964,12.057404 291.668060,22.966948 296.930603,34.217731 
	C301.355072,43.676838 304.930298,53.533188 308.511841,63.642723 
	C271.295319,88.547272 234.448441,113.022789 197.042130,137.869904 
	C197.042130,100.733871 197.042130,64.448593 197.369415,27.982716 
	C210.322006,23.537506 222.961365,19.313919 235.568802,14.997118 
	C249.061539,10.377195 262.524200,5.669430 276.000000,1.000002 
	C277.066681,1.000000 278.133331,1.000000 279.600006,1.000001 
z"/>
<path fill="#FFFFFF" opacity="1.000000" stroke="none" 
	d="
M275.531342,1.000002 
	C262.524200,5.669430 249.061539,10.377195 235.568802,14.997118 
	C222.961365,19.313919 210.322006,23.537506 196.988220,27.954765 
	C191.533798,29.784611 186.787888,31.461815 181.707581,32.963737 
	C176.565231,31.237286 171.757248,29.686121 166.949265,28.134956 
	C149.193985,22.101290 131.444519,16.050468 113.680901,10.041466 
	C105.263214,7.193970 96.818497,4.426391 88.193008,1.311302 
	C150.354233,1.000000 212.708450,1.000000 275.531342,1.000002 
z"/>
<path fill="#FFFFFF" opacity="1.000000" stroke="none" 
	d="
M181.761810,484.945679 
	C193.319122,498.722809 207.359711,508.320465 224.929245,512.431458 
	C226.499420,512.798889 228.113693,512.977722 229.853745,513.622070 
	C198.312439,514.000000 166.624878,514.000000 134.468658,514.000000 
	C140.238983,511.894501 146.654785,510.198273 152.679077,507.595795 
	C164.165359,502.633759 173.827667,495.118530 181.761810,484.945679 
z"/>
<path fill="#FF2C3C" opacity="1.000000" stroke="none" 
	d="
M287.250000,514.000000 
	C287.060059,513.703308 287.193695,513.444580 287.586792,513.105164 
	C287.837646,513.149414 287.902527,513.312256 287.983704,513.737549 
	C288.000000,514.000000 287.500000,514.000000 287.250000,514.000000 
z"/>
<path fill="#FFBD86" opacity="1.000000" stroke="none" 
	d="
M182.041962,33.139023 
	C186.787888,31.461815 191.533798,29.784611 196.660919,28.135359 
	C197.042130,64.448593 197.042130,100.733871 197.042130,137.869904 
	C234.448441,113.022789 271.295319,88.547272 308.477112,64.017929 
	C310.861237,72.465385 312.933777,80.961166 314.941681,89.472198 
	C315.387238,91.360733 315.604736,93.303070 315.541382,95.662796 
	C276.738617,121.626373 238.297241,147.111359 199.989059,172.795013 
	C198.361496,173.886215 197.142944,176.812653 197.126556,178.895111 
	C196.931351,203.703705 196.997696,228.514404 197.009155,253.324539 
	C197.009750,254.595139 197.134308,255.865692 197.256439,258.187286 
	C202.615402,254.490906 207.290253,251.173752 212.056595,247.993759 
	C243.123428,227.266586 274.204193,206.560272 305.310760,185.892868 
	C306.636597,185.011963 308.261414,184.581116 309.746948,183.940613 
	C307.104034,195.047302 304.512146,206.166534 301.788177,217.253311 
	C300.930878,220.742630 299.719269,224.144882 298.010925,227.832336 
	C291.840698,231.745804 286.324493,235.406601 280.818939,239.083359 
	C254.175354,256.876801 227.560150,274.713043 200.852905,292.410431 
	C198.213226,294.159576 196.929779,295.943359 196.940109,299.210114 
	C197.056931,336.178528 197.043182,373.147339 197.064423,410.116058 
	C192.603455,416.013062 188.142487,421.910095 183.050903,427.628174 
	C182.279587,426.306488 182.015732,425.163696 182.015701,424.020935 
	C182.011719,293.726959 182.027390,163.432999 182.041962,33.139023 
z"/>
<path fill="#F6A96C" opacity="1.000000" stroke="none" 
	d="
M309.959167,183.600952 
	C308.261414,184.581116 306.636597,185.011963 305.310760,185.892868 
	C274.204193,206.560272 243.123428,227.266586 212.056595,247.993759 
	C207.290253,251.173752 202.615402,254.490906 197.256439,258.187286 
	C197.134308,255.865692 197.009750,254.595139 197.009155,253.324539 
	C196.997696,228.514404 196.931351,203.703705 197.126556,178.895111 
	C197.142944,176.812653 198.361496,173.886215 199.989059,172.795013 
	C238.297241,147.111359 276.738617,121.626373 315.492737,96.075043 
	C316.536041,104.926201 317.780609,113.806190 317.798309,122.688629 
	C317.816345,131.739960 317.051086,140.849854 315.859955,149.832153 
	C314.375000,161.029724 312.103363,172.122986 309.959167,183.600952 
z"/>
<path fill="#F6A96C" opacity="1.000000" stroke="none" 
	d="
M197.370438,409.965088 
	C197.043182,373.147339 197.056931,336.178528 196.940109,299.210114 
	C196.929779,295.943359 198.213226,294.159576 200.852905,292.410431 
	C227.560150,274.713043 254.175354,256.876801 280.818939,239.083359 
	C286.324493,235.406601 291.840698,231.745804 297.708130,228.045822 
	C294.403839,238.215546 291.139496,248.581711 286.986145,258.578522 
	C281.362305,272.114655 275.578308,285.634430 268.907257,298.672211 
	C261.108429,313.914154 252.702576,328.887024 243.782776,343.502258 
	C234.620117,358.515442 224.511841,372.951111 214.845520,387.658020 
	C214.131851,388.743835 213.645416,389.978973 213.055145,391.495026 
	C210.696426,394.195282 208.156067,396.393768 206.019119,398.931915 
	C203.078415,402.424774 200.442780,406.174469 197.370438,409.965088 
z"/>
<path fill="#A8D32A" opacity="1.000000" stroke="none" 
	d="
M405.777435,198.960800 
	C412.806335,192.128250 419.835205,185.295685 427.556580,177.789993 
	C431.576263,181.265747 436.694702,184.520615 440.245331,189.014297 
	C446.903046,197.440308 453.412384,206.163589 458.592651,215.532257 
	C465.361969,227.774750 468.145538,241.305008 469.180450,255.406769 
	C470.623077,275.064362 467.026215,293.529388 457.868500,310.705139 
	C453.531311,318.839783 447.310303,325.970093 441.941772,333.554688 
	C441.190125,334.616608 440.432922,335.674591 439.063751,336.741547 
	C431.281616,329.817780 424.114044,322.886871 416.983551,315.745544 
	C417.020660,315.535126 417.089783,315.112946 417.381866,314.948425 
	C425.258301,307.149902 431.225525,298.529327 434.212433,287.662354 
	C438.036926,277.900696 439.582306,268.138214 438.867340,257.613739 
	C438.615845,255.091797 438.377136,252.974136 438.014954,250.877808 
	C436.142975,240.041580 432.970306,229.710083 426.095459,220.472900 
	C422.493408,216.050125 419.135040,211.814713 415.435669,207.901718 
	C412.428406,204.720825 409.012238,201.926544 405.777435,198.960800 
z"/>
<path fill="#93BF01" opacity="1.000000" stroke="none" 
	d="
M416.946442,315.955933 
	C424.114044,322.886871 431.281616,329.817780 438.756989,336.886261 
	C424.586334,351.376831 407.364227,361.151886 387.576904,365.537811 
	C360.270325,371.590424 334.157043,367.427429 309.928040,353.274567 
	C297.820343,346.202179 287.642517,336.796997 279.252441,325.563965 
	C286.339264,318.432220 293.374634,311.352295 301.000885,304.259338 
	C302.803528,305.804596 303.972107,307.398773 305.234467,308.914917 
	C310.587982,315.344757 316.025787,321.686890 324.082764,325.514832 
	C337.316895,334.097656 351.571320,338.135895 367.452087,337.903198 
	C369.781250,337.622375 371.763306,337.488831 373.613220,336.923035 
	C381.080566,334.639160 388.507141,332.221985 396.306641,329.863892 
	C403.425140,325.234467 410.185791,320.595184 416.946442,315.955933 
z"/>
<path fill="#FFBD86" opacity="1.000000" stroke="none" 
	d="
M323.900330,325.237061 
	C316.025787,321.686890 310.587982,315.344757 305.234467,308.914917 
	C303.972107,307.398773 302.803528,305.804596 301.290344,304.091125 
	C318.111359,286.711365 335.233826,269.486786 352.950409,252.252014 
	C362.257111,260.888275 370.947937,269.556793 379.708771,278.154022 
	C380.846710,279.270691 382.248047,280.591125 383.694305,280.837555 
	C389.205383,281.776611 394.796753,282.230804 400.336304,283.019440 
	C411.574127,284.619324 422.797729,286.319031 434.027191,287.977600 
	C431.225525,298.529327 425.258301,307.149902 417.077759,314.784790 
	C407.240631,305.604614 398.028076,296.394592 388.727264,287.274597 
	C387.378479,285.952026 385.606934,285.060669 384.026245,283.725159 
	C383.889008,283.203766 383.756531,282.926941 383.624023,282.650146 
	C383.741211,283.106049 383.858398,283.561920 383.980347,284.423340 
	C387.972992,299.837250 391.960876,314.845642 395.948761,329.854034 
	C388.507141,332.221985 381.080566,334.639160 373.613220,336.923035 
	C371.763306,337.488831 369.781250,337.622375 367.389954,337.529419 
	C363.310394,322.580231 359.700836,308.056274 356.434662,294.914093 
	C345.688080,304.930237 334.794220,315.083649 323.900330,325.237061 
z"/>
<path fill="#FED2A4" opacity="1.000000" stroke="none" 
	d="
M434.212433,287.662354 
	C422.797729,286.319031 411.574127,284.619324 400.336304,283.019440 
	C394.796753,282.230804 389.205383,281.776611 383.694305,280.837555 
	C382.248047,280.591125 380.846710,279.270691 379.708771,278.154022 
	C370.947937,269.556793 362.257111,260.888275 353.239990,252.089478 
	C367.782471,236.966019 382.629150,221.994598 397.477020,207.024323 
	C400.050171,204.429977 402.628265,201.840546 405.490723,199.104828 
	C409.012238,201.926544 412.428406,204.720825 415.435669,207.901718 
	C419.135040,211.814713 422.493408,216.050125 425.924713,220.786926 
	C416.229950,231.190918 406.609650,240.954147 396.001831,251.719574 
	C411.200256,253.958557 425.011719,255.993210 438.823181,258.027863 
	C439.582306,268.138214 438.036926,277.900696 434.212433,287.662354 
z"/>
<path fill="#FED2A4" opacity="1.000000" stroke="none" 
	d="
M181.707581,32.963737 
	C182.027390,163.432999 182.011719,293.726959 182.015701,424.020935 
	C182.015732,425.163696 182.279587,426.306488 182.727814,427.737061 
	C182.840622,428.562988 182.645889,429.101044 182.220612,429.813171 
	C176.683792,423.229218 171.377518,416.471161 166.310486,409.091187 
	C166.697815,407.663361 166.974930,406.857605 166.975433,406.051636 
	C166.997726,370.287933 167.069473,334.523682 166.822586,298.761688 
	C166.806915,296.492798 164.826141,293.463928 162.852966,292.105225 
	C147.968338,281.855896 132.872894,271.911835 117.811546,261.920288 
	C100.265884,250.280685 82.687996,238.689667 65.124084,227.077576 
	C61.410358,213.004166 57.696629,198.930771 54.321415,184.462830 
	C55.247772,184.358673 55.876598,184.587555 56.417583,184.948196 
	C86.528114,205.021423 116.627731,225.111053 146.738159,245.184433 
	C153.149384,249.458572 159.597321,253.677658 166.429382,258.186768 
	C166.723297,256.807281 166.967484,256.194794 166.968018,255.582092 
	C166.990753,229.606216 167.061844,203.629761 166.844345,177.655716 
	C166.829178,175.844788 165.062225,173.444397 163.421906,172.339935 
	C126.938965,147.775894 90.365150,123.346741 53.779243,98.935959 
	C52.022659,97.763931 49.997192,96.994881 48.096943,96.038177 
	C49.863434,86.434509 51.620216,76.829041 53.408043,67.229355 
	C53.646149,65.950844 54.041718,64.701660 54.641544,63.180641 
	C63.074516,68.583717 71.152939,74.360535 79.400108,79.885475 
	C108.214828,99.188995 137.087845,118.405518 166.983810,138.352402 
	C166.983810,101.404030 166.983810,65.225655 166.966537,28.591118 
	C171.757248,29.686121 176.565231,31.237286 181.707581,32.963737 
z"/>
<path fill="#FFBD86" opacity="1.000000" stroke="none" 
	d="
M48.054440,96.456085 
	C49.997192,96.994881 52.022659,97.763931 53.779243,98.935959 
	C90.365150,123.346741 126.938965,147.775894 163.421906,172.339935 
	C165.062225,173.444397 166.829178,175.844788 166.844345,177.655716 
	C167.061844,203.629761 166.990753,229.606216 166.968018,255.582092 
	C166.967484,256.194794 166.723297,256.807281 166.429382,258.186768 
	C159.597321,253.677658 153.149384,249.458572 146.738159,245.184433 
	C116.627731,225.111053 86.528114,205.021423 56.417583,184.948196 
	C55.876598,184.587555 55.247772,184.358673 54.302948,184.047867 
	C52.305470,176.027802 49.983959,168.096619 49.171463,160.013779 
	C47.652054,144.898346 46.720169,129.705826 46.145191,114.522621 
	C45.923622,108.671700 47.341194,102.758698 48.054440,96.456085 
z"/>
<path fill="#FFBD86" opacity="1.000000" stroke="none" 
	d="
M65.105713,227.443787 
	C82.687996,238.689667 100.265884,250.280685 117.811546,261.920288 
	C132.872894,271.911835 147.968338,281.855896 162.852966,292.105225 
	C164.826141,293.463928 166.806915,296.492798 166.822586,298.761688 
	C167.069473,334.523682 166.997726,370.287933 166.975433,406.051636 
	C166.974930,406.857605 166.697815,407.663361 166.233734,408.754822 
	C162.307556,404.427673 158.716461,399.799774 155.075760,395.211243 
	C153.964691,393.810883 152.717163,392.518799 151.218201,391.029083 
	C133.416138,365.497406 116.554970,339.749359 102.067345,312.468506 
	C88.653748,287.210114 76.837585,261.308197 67.603226,234.236328 
	C66.861290,232.061234 65.930412,229.950592 65.105713,227.443787 
z"/>
<path fill="#FFBD86" opacity="1.000000" stroke="none" 
	d="
M438.867340,257.613739 
	C425.011719,255.993210 411.200256,253.958557 396.001831,251.719574 
	C406.609650,240.954147 416.229950,231.190918 426.020996,221.113678 
	C432.970306,229.710083 436.142975,240.041580 438.014954,250.877808 
	C438.377136,252.974136 438.615845,255.091797 438.867340,257.613739 
z"/>
<path fill="#EA9C58" opacity="1.000000" stroke="none" 
	d="
M384.031006,283.969757 
	C385.606934,285.060669 387.378479,285.952026 388.727264,287.274597 
	C398.028076,296.394592 407.240631,305.604614 416.785645,314.949310 
	C417.089783,315.112946 417.020660,315.535126 416.983551,315.745544 
	C410.185791,320.595184 403.425140,325.234467 396.306641,329.863892 
	C391.960876,314.845642 387.972992,299.837250 383.994781,284.412170 
	C384.004456,283.995483 384.031006,283.969757 384.031006,283.969757 
z"/>
<path fill="#EA9B58" opacity="1.000000" stroke="none" 
	d="
M324.082794,325.514832 
	C334.794220,315.083649 345.688080,304.930237 356.434662,294.914093 
	C359.700836,308.056274 363.310394,322.580231 366.982086,337.477966 
	C351.571320,338.135895 337.316895,334.097656 324.082794,325.514832 
z"/>
<path fill="#EA9C58" opacity="1.000000" stroke="none" 
	d="
M383.990051,284.006653 
	C383.858398,283.561920 383.741211,283.106049 383.624023,282.650146 
	C383.756531,282.926941 383.889008,283.203766 384.026245,283.725159 
	C384.031006,283.969757 384.004456,283.995483 383.990051,284.006653 
z"/>
</svg>